<svg width="359" height="812" viewBox="0 0 359 812" fill="none" xmlns="http://www.w3.org/2000/svg">
<g clip-path="url(#clip0_61385_181)">
<rect width="359" height="812" fill="#202024"/>
<circle cx="278" cy="99" r="300" transform="rotate(-180 278 99)" fill="url(#paint0_radial_61385_181)"/>
<circle cx="98" cy="99" r="300" transform="rotate(-180 98 99)" fill="url(#paint1_radial_61385_181)"/>
<mask id="mask0_61385_181" style="mask-type:alpha" maskUnits="userSpaceOnUse" x="0" y="0" width="375" height="812">
<rect width="375" height="812" fill="#202024"/>
</mask>
<g mask="url(#mask0_61385_181)">
<path d="M375 168.101V-310.699L187.478 -418.486L-0.0446777 -310.699V168.101L187.478 275.894L375 168.101Z" fill="url(#paint2_linear_61385_181)"/>
<g style="mix-blend-mode:luminosity" opacity="0.4">
<path d="M1.75826 61.3931V168.797L91.0687 222.505L180.379 168.797V61.3931L91.0687 7.68578L1.75826 61.3931Z" fill="url(#paint3_linear_61385_181)"/>
<path d="M1.75826 -46.0166V61.3877L91.0687 115.095L180.379 61.3877V-46.0166L91.0687 -99.7239L1.75826 -46.0166Z" fill="url(#paint4_linear_61385_181)"/>
<path d="M269.69 -99.6961V7.70821L180.379 61.4155L91.0686 7.70821V-99.6961L180.379 -153.403L269.69 -99.6961Z" fill="url(#paint5_linear_61385_181)"/>
<path d="M180.379 168.797V61.3927L269.69 7.68539L359 61.3927V168.797L269.69 222.504L180.379 168.797Z" fill="url(#paint6_linear_61385_181)"/>
<path d="M359 -46.0166V61.3877L269.689 115.095L180.379 61.3877V-46.0166L269.689 -99.7239L359 -46.0166Z" fill="url(#paint7_linear_61385_181)"/>
<path d="M269.69 222.527V115.123L180.379 61.4155L91.0686 115.123L91.0686 222.527L180.379 276.234L269.69 222.527Z" fill="url(#paint8_linear_61385_181)"/>
</g>
</g>
</g>
<defs>
<radialGradient id="paint0_radial_61385_181" cx="0" cy="0" r="1" gradientUnits="userSpaceOnUse" gradientTransform="translate(278 99) rotate(90) scale(300)">
<stop stop-color="#FFC323"/>
<stop offset="1" stop-color="#121214" stop-opacity="0"/>
</radialGradient>
<radialGradient id="paint1_radial_61385_181" cx="0" cy="0" r="1" gradientUnits="userSpaceOnUse" gradientTransform="translate(98 99) rotate(90) scale(300)">
<stop stop-color="#FF3D6E"/>
<stop offset="1" stop-color="#121214" stop-opacity="0"/>
</radialGradient>
<linearGradient id="paint2_linear_61385_181" x1="-67.9497" y1="58.9385" x2="436.115" y2="232.357" gradientUnits="userSpaceOnUse">
<stop stop-color="#FF008E"/>
<stop offset="1" stop-color="#FFCD1E"/>
</linearGradient>
<linearGradient id="paint3_linear_61385_181" x1="91.0687" y1="217.565" x2="-3.75182" y2="62.6551" gradientUnits="userSpaceOnUse">
<stop stop-color="#8257E5"/>
<stop offset="1" stop-color="#FF008E" stop-opacity="0"/>
</linearGradient>
<linearGradient id="paint4_linear_61385_181" x1="91.0687" y1="110.155" x2="-3.75184" y2="-44.7545" gradientUnits="userSpaceOnUse">
<stop stop-color="#8257E5"/>
<stop offset="1" stop-color="#FF008E" stop-opacity="0"/>
</linearGradient>
<linearGradient id="paint5_linear_61385_181" x1="91.0686" y1="-105.732" x2="273.48" y2="-0.353439" gradientUnits="userSpaceOnUse">
<stop stop-color="#FF008E" stop-opacity="0"/>
<stop offset="1" stop-color="#FFCD1E"/>
</linearGradient>
<linearGradient id="paint6_linear_61385_181" x1="359" y1="174.833" x2="176.588" y2="69.4543" gradientUnits="userSpaceOnUse">
<stop stop-color="#FF008E" stop-opacity="0"/>
<stop offset="1" stop-color="#FFCD1E"/>
</linearGradient>
<linearGradient id="paint7_linear_61385_181" x1="269.689" y1="110.155" x2="364.51" y2="-44.7546" gradientUnits="userSpaceOnUse">
<stop stop-color="#8257E5"/>
<stop offset="1" stop-color="#FF008E" stop-opacity="0"/>
</linearGradient>
<linearGradient id="paint8_linear_61385_181" x1="180.379" y1="66.3552" x2="275.2" y2="221.265" gradientUnits="userSpaceOnUse">
<stop stop-color="#8257E5"/>
<stop offset="1" stop-color="#FF008E" stop-opacity="0"/>
</linearGradient>
<clipPath id="clip0_61385_181">
<rect width="359" height="812" fill="white"/>
</clipPath>
</defs>
</svg>
