<svg width="47" height="48" viewBox="0 0 47 48" fill="none" xmlns="http://www.w3.org/2000/svg">
<rect x="0.807983" width="45.952" height="48" fill="#323238"/>
<path d="M35.412 24.0731C35.412 17.4046 30.238 12 23.854 12C17.47 12 12.296 17.4046 12.296 24.0731C12.296 30.1002 16.5219 35.0945 22.0481 36V27.563H19.1134V24.0731H22.0481V21.4132C22.0481 18.3879 23.7727 16.7161 26.4139 16.7161C27.6781 16.7161 29.0009 16.9519 29.0009 16.9519V19.923H27.5426C26.1069 19.923 25.6599 20.8544 25.6599 21.8094V24.0731H28.8655L28.353 27.563H25.6599V36C31.1861 35.0945 35.412 30.1002 35.412 24.0731Z" fill="white"/>
</svg>
