<svg width="47" height="48" viewBox="0 0 47 48" fill="none" xmlns="http://www.w3.org/2000/svg">
<rect x="0.197388" width="45.952" height="48" fill="#323238"/>
<g clip-path="url(#clip0_61385_216)">
<path d="M21.9518 35.9999C20.8921 35.9999 19.6543 35.9939 18.4327 35.9209C16.6454 35.9629 14.9144 35.2669 13.6154 33.9839C12.387 32.6275 11.7206 30.8196 11.7611 28.9529C11.6854 27.5099 11.6854 26.0509 11.6854 24.6399C11.6854 24.4265 11.6854 24.2132 11.6854 23.9999C11.6854 23.7865 11.6854 23.5732 11.6854 23.3599C11.6854 21.9489 11.6854 20.4899 11.7611 19.0479C11.7208 17.1809 12.3872 15.3728 13.6154 14.0159C14.9144 12.7329 16.6454 12.0369 18.4327 12.0789C19.6581 12.0059 20.8921 11.9999 21.9518 11.9999H24.3959C25.4557 11.9999 26.6935 12.0059 27.916 12.0789C29.7031 12.0366 31.4339 12.7327 32.7324 14.0159C33.9606 15.3728 34.6269 17.1809 34.5867 19.0479C34.6614 20.4899 34.6614 21.9489 34.6614 23.3609C34.6614 23.5742 34.6614 23.7875 34.6614 24.0009C34.6614 24.2142 34.6614 24.4272 34.6614 24.6399C34.6614 26.0509 34.6614 27.5099 34.5857 28.9539C34.6262 30.8206 33.9598 32.6285 32.7314 33.9849C31.4329 35.2681 29.7021 35.9642 27.9151 35.9219C26.6887 35.9949 25.4547 36.0009 24.395 36.0009L21.9518 35.9999Z" fill="white"/>
<path d="M28.5403 18.7885C28.7667 18.9465 29.0328 19.0308 29.3051 19.0308L29.3061 19.0318C29.6711 19.0313 30.021 18.8795 30.2789 18.6097C30.5369 18.3399 30.6818 17.9741 30.6818 17.5928C30.6818 17.3084 30.601 17.0304 30.4497 16.7939C30.2985 16.5575 30.0835 16.3731 29.8319 16.2643C29.5804 16.1555 29.3036 16.127 29.0365 16.1825C28.7695 16.238 28.5242 16.3749 28.3317 16.576C28.1391 16.7771 28.008 17.0334 27.9549 17.3123C27.9018 17.5913 27.9291 17.8804 28.0333 18.1431C28.1375 18.4059 28.3139 18.6305 28.5403 18.7885Z" fill="#323238"/>
<path fill-rule="evenodd" clip-rule="evenodd" d="M23.1736 30.1556C22.0081 30.1554 20.8688 29.7942 19.8997 29.1176C18.9307 28.4411 18.1755 27.4796 17.7296 26.3547C17.2837 25.2298 17.1671 23.9921 17.3946 22.798C17.6221 21.6039 18.1835 20.5071 19.0077 19.6463C19.8319 18.7854 20.882 18.1992 22.0252 17.9618C23.1684 17.7243 24.3533 17.8463 25.4301 18.3123C26.5069 18.7782 27.4273 19.5673 28.0748 20.5796C28.7223 21.5919 29.0679 22.7821 29.0679 23.9996C29.0664 25.632 28.4449 27.1972 27.3398 28.3515C26.2348 29.5058 24.7364 30.154 23.1736 30.1556ZM23.1736 20.0001C22.4162 20.0001 21.6758 20.2347 21.0461 20.6742C20.4164 21.1137 19.9256 21.7385 19.6357 22.4694C19.3459 23.2003 19.2701 24.0045 19.4178 24.7805C19.5656 25.5564 19.9303 26.2691 20.4658 26.8285C21.0014 27.3879 21.6837 27.7689 22.4265 27.9232C23.1693 28.0776 23.9393 27.9984 24.639 27.6956C25.3387 27.3929 25.9368 26.8802 26.3575 26.2224C26.7783 25.5646 27.0029 24.7912 27.0029 24.0001C27.0029 22.9392 26.5995 21.9218 25.8813 21.1717C25.1632 20.4215 24.1892 20.0001 23.1736 20.0001Z" fill="#323238"/>
</g>
<defs>
<clipPath id="clip0_61385_216">
<rect width="22.976" height="24" fill="white" transform="translate(11.6854 11.9999)"/>
</clipPath>
</defs>
</svg>
