<svg width="47" height="48" viewBox="0 0 47 48" fill="none" xmlns="http://www.w3.org/2000/svg">
<rect x="0.418701" width="45.9521" height="48" fill="#323238"/>
<g clip-path="url(#clip0_61385_205)">
<path d="M35.5385 16.8454C34.6534 17.236 33.7153 17.4936 32.7546 17.6099C33.7677 17.0044 34.5258 16.0517 34.8874 14.9295C33.9365 15.4966 32.8948 15.8957 31.8081 16.1093C31.1442 15.3978 30.281 14.9025 29.331 14.6882C28.381 14.4739 27.3883 14.5504 26.4826 14.9078C25.5768 15.2652 24.7999 15.8869 24.2533 16.6917C23.7068 17.4966 23.4159 18.4472 23.4186 19.4196C23.4167 19.7917 23.4587 20.1627 23.5438 20.525C21.6138 20.4295 19.7257 19.9286 18.0028 19.0551C16.2798 18.1816 14.7608 16.9551 13.5449 15.4557C12.9245 16.5232 12.7351 17.7866 13.0153 18.9886C13.2954 20.1907 14.024 21.2409 15.0526 21.9253C14.2796 21.9062 13.523 21.6984 12.8489 21.3201V21.3803C12.8484 22.4996 13.2361 23.5845 13.946 24.4508C14.656 25.317 15.6445 25.9111 16.7435 26.1322C16.3272 26.2449 15.8976 26.302 15.4662 26.302C15.1603 26.3027 14.8551 26.2726 14.5552 26.2124C14.865 27.175 15.4685 28.0169 16.2812 28.6202C17.094 29.2235 18.0753 29.558 19.0879 29.577C17.3698 30.9252 15.2469 31.6563 13.0616 31.6521C12.675 31.6516 12.2887 31.6284 11.9048 31.5825C14.113 33.0171 16.6921 33.7779 19.3266 33.772C21.1439 33.7848 22.9456 33.4367 24.627 32.7481C26.3084 32.0595 27.8359 31.044 29.1207 29.7608C30.4056 28.4776 31.4221 26.9522 32.1113 25.2733C32.8004 23.5944 33.1484 21.7955 33.1351 19.9811C33.1351 19.7711 33.1351 19.5611 33.1197 19.3559C34.0689 18.6691 34.888 17.819 35.5385 16.8454V16.8454Z" fill="white"/>
</g>
<defs>
<clipPath id="clip0_61385_205">
<rect width="23.6325" height="19.2" fill="white" transform="translate(11.9067 14.5712)"/>
</clipPath>
</defs>
</svg>
