<svg width="47" height="48" viewBox="0 0 47 48" fill="none" xmlns="http://www.w3.org/2000/svg">
<rect x="0.58667" width="45.952" height="48" fill="#323238"/>
<g clip-path="url(#clip0_61385_212)">
<path d="M35.5537 18.8108C35.5963 17.7824 35.2605 16.7777 34.62 16.0172C33.9794 15.2566 33.0865 14.8023 32.1371 14.754C29.5797 14.6242 26.9717 14.5712 24.308 14.5712H23.4775C20.8188 14.5712 18.2057 14.6214 15.6484 14.754C14.6987 14.8056 13.8066 15.2625 13.1671 16.0246C12.5276 16.7867 12.1929 17.7921 12.236 18.8209C12.1212 20.6043 12.0697 22.3804 12.0748 24.1611C12.0799 25.9418 12.1212 27.7206 12.2318 29.5059C12.1868 30.5362 12.5205 31.5438 13.1599 32.3083C13.7992 33.0727 14.6922 33.5316 15.6433 33.5846C18.3298 33.7199 21.0864 33.7793 23.8885 33.7748C26.6951 33.7845 29.4435 33.7211 32.1337 33.5846C33.0849 33.5326 33.9782 33.0746 34.6184 32.3108C35.2585 31.5471 35.5933 30.5399 35.5494 29.5095C35.66 27.7243 35.7106 25.9445 35.7064 24.1602C35.7154 22.3771 35.6645 20.5939 35.5537 18.8108ZM21.6274 29.0653V19.2414L28.3213 24.151L21.6274 29.0653Z" fill="white"/>
</g>
<defs>
<clipPath id="clip0_61385_212">
<rect width="23.6325" height="19.2" fill="white" transform="translate(12.0747 14.5712)"/>
</clipPath>
</defs>
</svg>
